<svg width="21" height="17" viewBox="0 0 21 17" fill="none" xmlns="http://www.w3.org/2000/svg">
<path d="M19.6328 7.10937H4.67868L9.47504 2.33624C10.0102 1.80359 10.0123 0.937953 9.47962 0.402768C8.94696 -0.132485 8.08126 -0.134467 7.54607 0.39812L0.402252 7.50749L0.401022 7.50879C-0.132796 8.04145 -0.134505 8.90988 0.400885 9.44432L0.402115 9.44561L7.54594 16.555C8.08106 17.0875 8.94676 17.0857 9.47948 16.5503C10.0121 16.0152 10.0101 15.1495 9.4749 14.6169L4.67868 9.84374H19.6328C20.3879 9.84374 21 9.23165 21 8.47655C21 7.72145 20.3879 7.10937 19.6328 7.10937Z" fill="#231F20"/>
</svg>
