<svg width="22" height="19" viewBox="0 0 22 19" fill="none" xmlns="http://www.w3.org/2000/svg">
<path d="M20.625 7.97802C21.0046 7.97802 21.3286 8.10787 21.5972 8.36758C21.8657 8.62728 22 8.94065 22 9.30769C22 9.67474 21.8657 9.98811 21.5972 10.2478C21.3286 10.5075 21.0046 10.6374 20.625 10.6374H20.4639L19.2285 17.5143C19.1712 17.8328 19.0137 18.096 18.7559 18.3037C18.498 18.5115 18.2044 18.6154 17.875 18.6154H4.125C3.79557 18.6154 3.50195 18.5115 3.24414 18.3037C2.98633 18.096 2.82878 17.8328 2.77148 17.5143L1.53613 10.6374H1.375C0.995443 10.6374 0.671387 10.5075 0.402832 10.2478C0.134277 9.98811 0 9.67474 0 9.30769C0 8.94065 0.134277 8.62728 0.402832 8.36758C0.671387 8.10787 0.995443 7.97802 1.375 7.97802H20.625ZM5.20996 16.2885C5.39616 16.2746 5.55192 16.1967 5.67725 16.0547C5.80257 15.9128 5.85807 15.7517 5.84375 15.5717L5.5 11.2503C5.48568 11.0702 5.40511 10.9196 5.2583 10.7984C5.11149 10.6772 4.94499 10.6235 4.75879 10.6374C4.57259 10.6512 4.41683 10.7291 4.2915 10.8711C4.16618 11.0131 4.11068 11.1741 4.125 11.3541L4.46875 15.6756C4.48307 15.8487 4.55648 15.9941 4.68896 16.1119C4.82145 16.2296 4.97721 16.2885 5.15625 16.2885H5.20996ZM9.625 15.6236V11.3022C9.625 11.1221 9.55697 10.9663 9.4209 10.8347C9.28483 10.7032 9.1237 10.6374 8.9375 10.6374C8.7513 10.6374 8.59017 10.7032 8.4541 10.8347C8.31803 10.9663 8.25 11.1221 8.25 11.3022V15.6236C8.25 15.8037 8.31803 15.9595 8.4541 16.0911C8.59017 16.2227 8.7513 16.2885 8.9375 16.2885C9.1237 16.2885 9.28483 16.2227 9.4209 16.0911C9.55697 15.9595 9.625 15.8037 9.625 15.6236ZM13.75 15.6236V11.3022C13.75 11.1221 13.682 10.9663 13.5459 10.8347C13.4098 10.7032 13.2487 10.6374 13.0625 10.6374C12.8763 10.6374 12.7152 10.7032 12.5791 10.8347C12.443 10.9663 12.375 11.1221 12.375 11.3022V15.6236C12.375 15.8037 12.443 15.9595 12.5791 16.0911C12.7152 16.2227 12.8763 16.2885 13.0625 16.2885C13.2487 16.2885 13.4098 16.2227 13.5459 16.0911C13.682 15.9595 13.75 15.8037 13.75 15.6236ZM17.5312 15.6756L17.875 11.3541C17.8893 11.1741 17.8338 11.0131 17.7085 10.8711C17.5832 10.7291 17.4274 10.6512 17.2412 10.6374C17.055 10.6235 16.8885 10.6772 16.7417 10.7984C16.5949 10.9196 16.5143 11.0702 16.5 11.2503L16.1562 15.5717C16.1419 15.7517 16.1974 15.9128 16.3228 16.0547C16.4481 16.1967 16.6038 16.2746 16.79 16.2885H16.8438C17.0228 16.2885 17.1785 16.2296 17.311 16.1119C17.4435 15.9941 17.5169 15.8487 17.5312 15.6756ZM5.11328 3.03331L4.11426 7.31319H2.69629L3.78125 2.73206C3.91732 2.12263 4.236 1.62573 4.7373 1.24137C5.23861 0.857014 5.81152 0.664835 6.45605 0.664835H8.25C8.25 0.484776 8.31803 0.328955 8.4541 0.197373C8.59017 0.065791 8.7513 0 8.9375 0H13.0625C13.2487 0 13.4098 0.065791 13.5459 0.197373C13.682 0.328955 13.75 0.484776 13.75 0.664835H15.5439C16.1885 0.664835 16.7614 0.857014 17.2627 1.24137C17.764 1.62573 18.0827 2.12263 18.2188 2.73206L19.3037 7.31319H17.8857L16.8867 3.03331C16.8079 2.72859 16.645 2.47928 16.3979 2.28537C16.1509 2.09146 15.8662 1.99451 15.5439 1.99451H13.75C13.75 2.17457 13.682 2.33039 13.5459 2.46197C13.4098 2.59355 13.2487 2.65934 13.0625 2.65934H8.9375C8.7513 2.65934 8.59017 2.59355 8.4541 2.46197C8.31803 2.33039 8.25 2.17457 8.25 1.99451H6.45605C6.13379 1.99451 5.84912 2.09146 5.60205 2.28537C5.35498 2.47928 5.19206 2.72859 5.11328 3.03331Z" fill="white"/>
</svg>
