<svg width="26" height="22" viewBox="0 0 26 22" fill="none" xmlns="http://www.w3.org/2000/svg">
<path d="M24.375 9.42857C24.8236 9.42857 25.2065 9.58203 25.5239 9.88895C25.8413 10.1959 26 10.5662 26 11C26 11.4338 25.8413 11.8041 25.5239 12.111C25.2065 12.418 24.8236 12.5714 24.375 12.5714H24.1846L22.7246 20.6987C22.6569 21.0751 22.4707 21.3862 22.166 21.6317C21.8613 21.8772 21.5143 22 21.125 22H4.875C4.48568 22 4.13867 21.8772 3.83398 21.6317C3.5293 21.3862 3.3431 21.0751 3.27539 20.6987L1.81543 12.5714H1.625C1.17643 12.5714 0.793457 12.418 0.476074 12.111C0.158691 11.8041 0 11.4338 0 11C0 10.5662 0.158691 10.1959 0.476074 9.88895C0.793457 9.58203 1.17643 9.42857 1.625 9.42857H24.375ZM6.15723 19.25C6.37728 19.2336 6.56136 19.1416 6.70947 18.9738C6.85758 18.806 6.92318 18.6157 6.90625 18.4029L6.5 13.2958C6.48307 13.083 6.38786 12.9049 6.21436 12.7617C6.04085 12.6185 5.84408 12.5551 5.62402 12.5714C5.40397 12.5878 5.21989 12.6799 5.07178 12.8477C4.92367 13.0154 4.85807 13.2057 4.875 13.4185L5.28125 18.5257C5.29818 18.7303 5.38493 18.9022 5.5415 19.0413C5.69808 19.1804 5.88216 19.25 6.09375 19.25H6.15723ZM11.375 18.4643V13.3571C11.375 13.1443 11.2946 12.9602 11.1338 12.8047C10.973 12.6492 10.7826 12.5714 10.5625 12.5714C10.3424 12.5714 10.152 12.6492 9.99121 12.8047C9.8304 12.9602 9.75 13.1443 9.75 13.3571V18.4643C9.75 18.6771 9.8304 18.8612 9.99121 19.0167C10.152 19.1722 10.3424 19.25 10.5625 19.25C10.7826 19.25 10.973 19.1722 11.1338 19.0167C11.2946 18.8612 11.375 18.6771 11.375 18.4643ZM16.25 18.4643V13.3571C16.25 13.1443 16.1696 12.9602 16.0088 12.8047C15.848 12.6492 15.6576 12.5714 15.4375 12.5714C15.2174 12.5714 15.027 12.6492 14.8662 12.8047C14.7054 12.9602 14.625 13.1443 14.625 13.3571V18.4643C14.625 18.6771 14.7054 18.8612 14.8662 19.0167C15.027 19.1722 15.2174 19.25 15.4375 19.25C15.6576 19.25 15.848 19.1722 16.0088 19.0167C16.1696 18.8612 16.25 18.6771 16.25 18.4643ZM20.7188 18.5257L21.125 13.4185C21.1419 13.2057 21.0763 13.0154 20.9282 12.8477C20.7801 12.6799 20.596 12.5878 20.376 12.5714C20.1559 12.5551 19.9591 12.6185 19.7856 12.7617C19.6121 12.9049 19.5169 13.083 19.5 13.2958L19.0938 18.4029C19.0768 18.6157 19.1424 18.806 19.2905 18.9738C19.4386 19.1416 19.6227 19.2336 19.8428 19.25H19.9062C20.1178 19.25 20.3019 19.1804 20.4585 19.0413C20.6151 18.9022 20.7018 18.7303 20.7188 18.5257ZM6.04297 3.58482L4.8623 8.64286H3.18652L4.46875 3.22879C4.62956 2.50856 5.00619 1.92132 5.59863 1.46708C6.19108 1.01283 6.86816 0.785714 7.62988 0.785714H9.75C9.75 0.572917 9.8304 0.388765 9.99121 0.233259C10.152 0.077753 10.3424 0 10.5625 0H15.4375C15.6576 0 15.848 0.077753 16.0088 0.233259C16.1696 0.388765 16.25 0.572917 16.25 0.785714H18.3701C19.1318 0.785714 19.8089 1.01283 20.4014 1.46708C20.9938 1.92132 21.3704 2.50856 21.5312 3.22879L22.8135 8.64286H21.1377L19.957 3.58482C19.8639 3.2247 19.6714 2.93006 19.3794 2.70089C19.0874 2.47173 18.751 2.35714 18.3701 2.35714H16.25C16.25 2.56994 16.1696 2.75409 16.0088 2.9096C15.848 3.0651 15.6576 3.14286 15.4375 3.14286H10.5625C10.3424 3.14286 10.152 3.0651 9.99121 2.9096C9.8304 2.75409 9.75 2.56994 9.75 2.35714H7.62988C7.24902 2.35714 6.9126 2.47173 6.62061 2.70089C6.32861 2.93006 6.13607 3.2247 6.04297 3.58482Z" fill="url(#paint0_linear_116_281)"/>
<defs>
<linearGradient id="paint0_linear_116_281" x1="26" y1="11" x2="-2.9737e-07" y2="11" gradientUnits="userSpaceOnUse">
<stop stop-color="#F04F26"/>
<stop offset="1" stop-color="#FD8B70"/>
</linearGradient>
</defs>
</svg>
