<svg width="14" height="14" viewBox="0 0 14 14" fill="none" xmlns="http://www.w3.org/2000/svg">
<path fill-rule="evenodd" clip-rule="evenodd" d="M6.875 0C3.07812 0 0 3.07812 0 6.875C0 10.6719 3.07812 13.75 6.875 13.75C10.6719 13.75 13.75 10.6719 13.75 6.875C13.75 3.07812 10.6719 0 6.875 0ZM9.855 5.7125C9.90987 5.64978 9.95165 5.57671 9.97787 5.49761C10.0041 5.4185 10.0142 5.33495 10.0077 5.25187C10.0011 5.16878 9.97802 5.08785 9.93974 5.01383C9.90145 4.93981 9.84874 4.87419 9.78472 4.82084C9.7207 4.76749 9.64665 4.72748 9.56694 4.70316C9.48722 4.67885 9.40345 4.67073 9.32055 4.67927C9.23765 4.68781 9.1573 4.71284 9.08422 4.7529C9.01113 4.79295 8.9468 4.84722 8.895 4.9125L6.2075 8.13688L4.81687 6.74563C4.699 6.63178 4.54112 6.56878 4.37725 6.5702C4.21338 6.57163 4.05662 6.63736 3.94074 6.75324C3.82486 6.86912 3.75913 7.02588 3.7577 7.18975C3.75628 7.35362 3.81928 7.5115 3.93313 7.62937L5.80813 9.50438C5.86954 9.56575 5.94306 9.61365 6.02401 9.64504C6.10496 9.67642 6.19156 9.6906 6.27829 9.68666C6.36503 9.68272 6.44999 9.66075 6.52776 9.62216C6.60553 9.58356 6.67441 9.52919 6.73 9.4625L9.855 5.7125Z" fill="#F2994A"/>
</svg>
