<svg width="14" height="15" viewBox="0 0 14 15" fill="none" xmlns="http://www.w3.org/2000/svg">
<path fill-rule="evenodd" clip-rule="evenodd" d="M6.875 0.625C3.07813 0.625 0 3.70313 0 7.5C0 11.2969 3.07813 14.375 6.875 14.375C10.6719 14.375 13.75 11.2969 13.75 7.5C13.75 3.70313 10.6719 0.625 6.875 0.625ZM9.855 6.3375C9.90987 6.27478 9.95165 6.20171 9.97787 6.12261C10.0041 6.0435 10.0142 5.95995 10.0077 5.87687C10.0011 5.79378 9.97802 5.71285 9.93973 5.63883C9.90145 5.56481 9.84874 5.49919 9.78472 5.44584C9.7207 5.39249 9.64665 5.35248 9.56694 5.32816C9.48722 5.30385 9.40345 5.29573 9.32055 5.30427C9.23765 5.31281 9.1573 5.33784 9.08422 5.3779C9.01113 5.41795 8.9468 5.47222 8.895 5.5375L6.2075 8.76188L4.81687 7.37063C4.699 7.25678 4.54112 7.19378 4.37725 7.1952C4.21338 7.19663 4.05662 7.26236 3.94074 7.37824C3.82486 7.49412 3.75913 7.65088 3.7577 7.81475C3.75628 7.97862 3.81928 8.1365 3.93313 8.25437L5.80813 10.1294C5.86954 10.1907 5.94306 10.2387 6.02401 10.27C6.10496 10.3014 6.19156 10.3156 6.27829 10.3117C6.36502 10.3077 6.44999 10.2857 6.52776 10.2472C6.60553 10.2086 6.67441 10.1542 6.73 10.0875L9.855 6.3375Z" fill="#219653"/>
</svg>
