<svg width="17" height="17" viewBox="0 0 17 17" fill="none" xmlns="http://www.w3.org/2000/svg">
<path d="M8.49206 0.583374C4.12206 0.583374 0.583313 4.13004 0.583313 8.50004C0.583313 12.87 4.12206 16.4167 8.49206 16.4167C12.87 16.4167 16.4166 12.87 16.4166 8.50004C16.4166 4.13004 12.87 0.583374 8.49206 0.583374ZM11.6666 11.6667C11.3579 11.9755 10.8591 11.9755 10.5504 11.6667L7.94581 9.06212C7.7954 8.91171 7.70831 8.71379 7.70831 8.50004V5.33337C7.70831 4.89796 8.06456 4.54171 8.49998 4.54171C8.9354 4.54171 9.29165 4.89796 9.29165 5.33337V8.17546L11.6666 10.5505C11.9754 10.8592 11.9754 11.358 11.6666 11.6667Z" fill="#F1A400"/>
</svg>
