<svg width="15" height="16" viewBox="0 0 15 16" fill="none" xmlns="http://www.w3.org/2000/svg">
<path d="M13.9996 13.197L13.9987 13.1961L9.60688 8.96431L9.60664 8.96408L8.61503 8.02113L13.9987 2.84665C14.1116 2.73806 14.2037 2.61699 14.2618 2.4831C14.3188 2.35156 14.3535 2.20795 14.3535 2.0632C14.3535 1.91154 14.3311 1.76651 14.2611 1.63116C14.2047 1.50148 14.1249 1.36955 14.0206 1.26923L14.0206 1.26918L14.0186 1.26746C13.9068 1.1707 13.7815 1.08272 13.6431 1.02727C13.5041 0.9716 13.344 0.95 13.1974 0.95C13.0476 0.95 12.8992 0.98322 12.7529 1.03732L12.7529 1.0373L12.7516 1.0378C12.6132 1.09324 12.4874 1.18141 12.3851 1.27975L6.18616 7.23788C6.08226 7.33775 6.00201 7.45925 5.94494 7.5909L5.94492 7.59089L5.94439 7.59221C5.88798 7.73319 5.8532 7.87645 5.8532 8.02133C5.8532 8.16608 5.88792 8.30968 5.94494 8.44123C6.00201 8.57288 6.08226 8.69438 6.18616 8.79425L12.3851 14.7524L12.3851 14.7524L12.3861 14.7533C12.6044 14.9521 12.8907 15.0505 13.1864 15.0505C13.4845 15.0505 13.7706 14.9295 13.9768 14.7313C14.1939 14.5226 14.3095 14.2575 14.3097 13.9699C14.321 13.6816 14.2054 13.4057 13.9996 13.197Z" fill="#9696A8" stroke="#9696A8" stroke-width="0.1"/>
<path d="M0.445449 2.80365L0.446366 2.80456L4.83819 7.0363L4.83843 7.03653L5.83004 7.97948L0.44641 13.154C0.333437 13.2625 0.241323 13.3836 0.183284 13.5175C0.126258 13.6491 0.0915404 13.7927 0.0915404 13.9374C0.0915404 14.0891 0.11398 14.2341 0.183985 14.3695C0.240387 14.4991 0.320125 14.6311 0.424506 14.7314L0.424459 14.7314L0.426443 14.7331C0.538304 14.8299 0.663538 14.9179 0.801988 14.9733C0.940998 15.029 1.10106 15.0506 1.24771 15.0506C1.3975 15.0506 1.54585 15.0174 1.69218 14.9633L1.69219 14.9633L1.69344 14.9628C1.83188 14.9074 1.95765 14.8192 2.05997 14.7209L8.25891 8.76273C8.36281 8.66286 8.44306 8.54136 8.50013 8.40971L8.50015 8.40972L8.50067 8.4084C8.55709 8.26742 8.59187 8.12416 8.59187 7.97928C8.59187 7.83453 8.55715 7.69093 8.50013 7.55938C8.44306 7.42773 8.36281 7.30623 8.25891 7.20636L2.05997 1.24824L2.05998 1.24822L2.05898 1.24731C1.84065 1.04851 1.55441 0.950062 1.25867 0.950062C0.960602 0.950062 0.674485 1.07113 0.468316 1.26929C0.251131 1.47804 0.135617 1.74314 0.13535 2.03069C0.124107 2.31897 0.239667 2.59487 0.445449 2.80365Z" fill="#9696A8" stroke="#9696A8" stroke-width="0.1"/>
</svg>
