<svg width="22" height="22" viewBox="0 0 22 22" fill="none" xmlns="http://www.w3.org/2000/svg">
<path d="M8.8 4.4H13.2C13.2 3.81652 12.9682 3.25695 12.5556 2.84437C12.1431 2.43179 11.5835 2.2 11 2.2C10.4165 2.2 9.85695 2.43179 9.44437 2.84437C9.03179 3.25695 8.8 3.81652 8.8 4.4ZM6.6 4.4C6.6 3.23305 7.06357 2.11389 7.88873 1.28873C8.71389 0.46357 9.83305 0 11 0C12.167 0 13.2861 0.46357 14.1113 1.28873C14.9364 2.11389 15.4 3.23305 15.4 4.4H20.9C21.1917 4.4 21.4715 4.51589 21.6778 4.72218C21.8841 4.92847 22 5.20826 22 5.5C22 5.79174 21.8841 6.07153 21.6778 6.27782C21.4715 6.48411 21.1917 6.6 20.9 6.6H19.9298L18.9552 17.974C18.8615 19.0723 18.359 20.0954 17.547 20.841C16.7351 21.5865 15.6729 22.0001 14.5706 22H7.4294C6.3271 22.0001 5.2649 21.5865 4.45296 20.841C3.64103 20.0954 3.1385 19.0723 3.0448 17.974L2.0702 6.6H1.1C0.808262 6.6 0.528472 6.48411 0.322183 6.27782C0.115892 6.07153 0 5.79174 0 5.5C0 5.20826 0.115892 4.92847 0.322183 4.72218C0.528472 4.51589 0.808262 4.4 1.1 4.4H6.6ZM14.3 11C14.3 10.7083 14.1841 10.4285 13.9778 10.2222C13.7715 10.0159 13.4917 9.9 13.2 9.9C12.9083 9.9 12.6285 10.0159 12.4222 10.2222C12.2159 10.4285 12.1 10.7083 12.1 11V15.4C12.1 15.6917 12.2159 15.9715 12.4222 16.1778C12.6285 16.3841 12.9083 16.5 13.2 16.5C13.4917 16.5 13.7715 16.3841 13.9778 16.1778C14.1841 15.9715 14.3 15.6917 14.3 15.4V11ZM8.8 9.9C8.50826 9.9 8.22847 10.0159 8.02218 10.2222C7.81589 10.4285 7.7 10.7083 7.7 11V15.4C7.7 15.6917 7.81589 15.9715 8.02218 16.1778C8.22847 16.3841 8.50826 16.5 8.8 16.5C9.09174 16.5 9.37153 16.3841 9.57782 16.1778C9.78411 15.9715 9.9 15.6917 9.9 15.4V11C9.9 10.7083 9.78411 10.4285 9.57782 10.2222C9.37153 10.0159 9.09174 9.9 8.8 9.9Z" fill="#130F26"/>
</svg>
