<svg width="28" height="27" viewBox="0 0 28 27" fill="none" xmlns="http://www.w3.org/2000/svg">
<path d="M19.8683 18.1094V10.5917M16.1094 18.1094V13.8136M10.7396 18.1094H23.6272V22.4052H10.7396V18.1094Z" stroke="#EB5757" stroke-width="2.14792" stroke-linecap="round" stroke-linejoin="round"/>
<path d="M10.7396 13.2766V18.1094H23.6271V13.2766C23.6271 13.2766 26.312 11.6657 26.312 8.98075C26.312 6.29585 24.1641 5.22188 21.4792 5.22188C21.4792 4.14792 19.8683 2 17.1834 2C14.4985 2 12.8875 4.14792 12.8875 5.22188C10.7396 5.22188 8.05469 6.29585 8.05469 8.98075C8.05469 11.6657 10.7396 13.2766 10.7396 13.2766Z" stroke="#EB5757" stroke-width="2.14792" stroke-linecap="round" stroke-linejoin="round"/>
<path fill-rule="evenodd" clip-rule="evenodd" d="M7.51773 26.0049L5.86232 24.4992L5.8257 24.466C4.20262 22.9956 2.7699 21.6976 1.75299 20.4546C0.716669 19.1879 0 17.8473 0 16.2804C0 13.6958 2.04242 11.6656 4.61803 11.6656C5.67701 11.6656 6.69536 12.0234 7.51773 12.6262C8.3401 12.0234 9.35845 11.6656 10.4174 11.6656C12.993 11.6656 15.0355 13.6958 15.0355 16.2804C15.0355 17.8473 14.3188 19.1879 13.2825 20.4546C12.2656 21.6976 10.8328 22.9956 9.20977 24.466L9.17469 24.4978L7.51773 26.0049ZM8.3265 13.372C8.02389 13.5696 7.75032 13.8079 7.51773 14.0786C7.28514 13.8079 7.01158 13.5696 6.70896 13.372C6.09772 12.9728 5.36797 12.7395 4.61803 12.7395C2.63335 12.7395 1.07396 14.2911 1.07396 16.2804C1.07396 18.7075 3.26484 20.6968 6.58338 23.7033L7.51773 24.5531L8.45208 23.7033C11.7706 20.6968 13.9615 18.7075 13.9615 16.2804C13.9615 14.2911 12.4021 12.7395 10.4174 12.7395C9.66749 12.7395 8.93774 12.9728 8.3265 13.372Z" fill="white"/>
<path d="M7.51774 24.5531L6.5834 23.7033C3.26486 20.6968 1.07397 18.7075 1.07397 16.2804C1.07397 14.2911 2.63337 12.7396 4.61805 12.7396C5.73926 12.7396 6.81537 13.261 7.51774 14.0786C8.22011 13.261 9.29622 12.7396 10.4174 12.7396C12.4021 12.7396 13.9615 14.2911 13.9615 16.2804C13.9615 18.7075 11.7706 20.6968 8.45209 23.7033L7.51774 24.5531Z" fill="#EB5757"/>
</svg>
