<svg width="24" height="24" viewBox="0 0 24 24" fill="none" xmlns="http://www.w3.org/2000/svg">
<g clip-path="url(#clip0_122_1907)">
<path fill-rule="evenodd" clip-rule="evenodd" d="M7.2 0C4.99086 0 3.2 1.79086 3.2 4V4.45714C3.2 5.17453 3.41323 5.84213 3.77976 6.4H2.4C1.07452 6.4 0 7.47451 0 8.8V10.4C0 11.7255 1.07452 12.8 2.4 12.8H11.2V6.4H12.8V12.8H21.6C22.9254 12.8 24 11.7255 24 10.4V8.8C24 7.47451 22.9254 6.4 21.6 6.4H20.2203C20.5867 5.84213 20.8 5.17453 20.8 4.45714V4C20.8 1.79086 19.0091 0 16.8 0C14.7629 0 12.9799 1.08767 12 2.71394C11.0201 1.08767 9.23706 0 7.2 0ZM12.8 6.4H17.2571C18.3301 6.4 19.2 5.53016 19.2 4.45714V4C19.2 2.67451 18.1254 1.6 16.8 1.6C14.5909 1.6 12.8 3.39086 12.8 5.6V6.4ZM11.2 6.4H6.74286C5.66984 6.4 4.8 5.53016 4.8 4.45714V4C4.8 2.67451 5.87451 1.6 7.2 1.6C9.40914 1.6 11.2 3.39086 11.2 5.6V6.4Z" fill="#231F20"/>
<path d="M11.2 14.4H1.59998V20C1.59998 22.2091 3.39084 24 5.59998 24H11.2V14.4Z" fill="#231F20"/>
<path d="M12.8 24H18.4001C20.6092 24 22.4001 22.2091 22.4001 20V14.4H12.8V24Z" fill="#231F20"/>
</g>
<defs>
<clipPath id="clip0_122_1907">
<rect width="24" height="24" fill="white"/>
</clipPath>
</defs>
</svg>
