<svg width="18" height="16" viewBox="0 0 18 16" fill="none" xmlns="http://www.w3.org/2000/svg">
<path d="M15.231 2.18903C14.8542 1.81207 14.4068 1.51304 13.9145 1.30902C13.4221 1.10501 12.8943 1 12.3614 1C11.8284 1 11.3006 1.10501 10.8083 1.30902C10.3159 1.51304 9.86853 1.81207 9.49175 2.18903L8.7098 2.97098L7.92785 2.18903C7.16678 1.42796 6.13455 1.00039 5.05824 1.00039C3.98193 1.00039 2.9497 1.42796 2.18863 2.18903C1.42756 2.95009 1 3.98232 1 5.05864C1 6.13495 1.42756 7.16718 2.18863 7.92825L2.97058 8.7102L8.7098 14.4494L14.449 8.7102L15.231 7.92825C15.6079 7.55147 15.907 7.10411 16.111 6.61173C16.315 6.11936 16.42 5.59161 16.42 5.05864C16.42 4.52567 16.315 3.99792 16.111 3.50554C15.907 3.01316 15.6079 2.56581 15.231 2.18903V2.18903Z" stroke="white" stroke-width="2" stroke-linecap="round" stroke-linejoin="round"/>
</svg>
