<svg width="13" height="17" viewBox="0 0 13 17" fill="none" xmlns="http://www.w3.org/2000/svg">
<path d="M12.1287 7.2851C11.7794 6.49894 11.2716 5.79331 10.6371 5.21238L10.1135 4.73198C10.0958 4.71612 10.0744 4.70486 10.0512 4.6992C10.0281 4.69353 10.0039 4.69364 9.9808 4.6995C9.95771 4.70536 9.93641 4.7168 9.91877 4.73282C9.90113 4.74883 9.88769 4.76894 9.87963 4.79136L9.64573 5.46247C9.49999 5.8835 9.23191 6.31351 8.85227 6.73634C8.82708 6.76332 8.79829 6.77052 8.7785 6.77232C8.75871 6.77412 8.72812 6.77052 8.70113 6.74533C8.67594 6.72374 8.66335 6.69135 8.66514 6.65897C8.73172 5.57583 8.40785 4.35414 7.69895 3.0245C7.1124 1.91977 6.29734 1.05793 5.27897 0.456986L4.53589 0.0197703C4.43873 -0.0378054 4.31458 0.0377626 4.31998 0.151115L4.35956 1.01475C4.38655 1.6049 4.31818 2.12668 4.15625 2.5603C3.95833 3.09107 3.67405 3.58407 3.3106 4.02668C3.05767 4.33428 2.771 4.61251 2.45596 4.85613C1.69723 5.43938 1.08029 6.18673 0.651325 7.04221C0.223419 7.90515 0.000522069 8.85523 0 9.81843C0 10.6677 0.167329 11.4899 0.49839 12.2654C0.818054 13.012 1.27937 13.6896 1.85682 14.2608C2.43977 14.8365 3.11629 15.2899 3.87017 15.6048C4.65104 15.9323 5.47869 16.0978 6.33333 16.0978C7.18797 16.0978 8.01562 15.9323 8.79649 15.6066C9.54852 15.2936 10.2324 14.8371 10.8098 14.2626C11.3928 13.6868 11.8498 13.0139 12.1683 12.2672C12.4988 11.4938 12.6684 10.6613 12.6667 9.82023C12.6667 8.9422 12.4867 8.08937 12.1287 7.2851Z" fill="#F05027"/>
</svg>
