<svg width="24" height="30" viewBox="0 0 24 30" fill="none" xmlns="http://www.w3.org/2000/svg">
<path d="M12 15H23.0833M23.0833 15L18.3333 19.75M23.0833 15L18.3333 10.25M23.0833 5.5V3.91667C23.0833 3.07681 22.7497 2.27136 22.1558 1.6775C21.5619 1.08363 20.7565 0.75 19.9166 0.75H4.08329C3.24344 0.75 2.43799 1.08363 1.84412 1.6775C1.25026 2.27136 0.916626 3.07681 0.916626 3.91667V26.0833C0.916626 26.9232 1.25026 27.7286 1.84412 28.3225C2.43799 28.9164 3.24344 29.25 4.08329 29.25H19.9166C20.7565 29.25 21.5619 28.9164 22.1558 28.3225C22.7497 27.7286 23.0833 26.9232 23.0833 26.0833V24.5" stroke="white" stroke-width="1.5" stroke-linecap="round" stroke-linejoin="round"/>
</svg>
