<svg width="18" height="18" viewBox="0 0 18 18" fill="none" xmlns="http://www.w3.org/2000/svg">
<path d="M17.0371 8.72705C17.0371 9.10288 16.893 9.46618 16.6235 9.72926C16.3604 9.99861 15.9969 10.1489 15.621 10.1489H9.95639V15.8114C9.95639 16.1873 9.806 16.5506 9.53656 16.8136C9.27338 17.0767 8.91621 17.2271 8.54024 17.2271C8.16427 17.2271 7.80084 17.0767 7.53766 16.8136C7.26822 16.5506 7.11783 16.1873 7.11783 15.8114V10.1489H1.45325C1.07729 10.1489 0.713851 9.99861 0.450674 9.72926C0.187496 9.46618 0.0371094 9.10288 0.0371094 8.72705C0.0371094 8.35122 0.187496 7.99418 0.450674 7.72484C0.713851 7.46176 1.07729 7.31143 1.45325 7.31143H7.11783V1.64894C7.11783 1.27311 7.26822 0.909807 7.53766 0.646727C7.80084 0.377382 8.16427 0.227051 8.54024 0.227051C8.91621 0.227051 9.27338 0.377382 9.53656 0.646727C9.806 0.909807 9.95639 1.27311 9.95639 1.64894V7.31143H15.621C15.9969 7.31143 16.3604 7.46176 16.6235 7.72484C16.893 7.99418 17.0371 8.35122 17.0371 8.72705Z" fill="url(#paint0_linear_116_3236)"/>
<defs>
<linearGradient id="paint0_linear_116_3236" x1="17.0371" y1="8.72705" x2="0.0371092" y2="8.72705" gradientUnits="userSpaceOnUse">
<stop stop-color="#F04F26"/>
<stop offset="1" stop-color="#FD8B70"/>
</linearGradient>
</defs>
</svg>
