<svg width="21" height="21" viewBox="0 0 21 21" fill="none" xmlns="http://www.w3.org/2000/svg">
<path d="M20.3805 10.059L10.9305 0.609C10.5525 0.231 10.0275 0 9.45 0H2.1C0.945 0 0 0.945 0 2.1V9.45C0 10.0275 0.231 10.5525 0.6195 10.941L10.0695 20.391C10.4475 20.769 10.9725 21 11.55 21C12.1275 21 12.6525 20.769 13.0305 20.3805L20.3805 13.0305C20.769 12.6525 21 12.1275 21 11.55C21 10.9725 20.7585 10.437 20.3805 10.059ZM3.675 5.25C2.8035 5.25 2.1 4.5465 2.1 3.675C2.1 2.8035 2.8035 2.1 3.675 2.1C4.5465 2.1 5.25 2.8035 5.25 3.675C5.25 4.5465 4.5465 5.25 3.675 5.25Z" fill="#F2994A"/>
</svg>
