<svg width="21" height="19" viewBox="0 0 21 19" fill="none" xmlns="http://www.w3.org/2000/svg">
<path d="M4.5 2.375C4.5 1.74511 4.73705 1.14102 5.15901 0.695621C5.58097 0.250223 6.15326 0 6.75 0H14.25C14.8467 0 15.419 0.250223 15.841 0.695621C16.2629 1.14102 16.5 1.74511 16.5 2.375V3.16667H18C18.7956 3.16667 19.5587 3.5003 20.1213 4.09416C20.6839 4.68803 21 5.49348 21 6.33333V13.4583C21 14.0882 20.7629 14.6923 20.341 15.1377C19.919 15.5831 19.3467 15.8333 18.75 15.8333H16.65V16.625C16.65 17.2549 16.4129 17.859 15.991 18.3044C15.569 18.7498 14.9967 19 14.4 19H6.75C6.15326 19 5.58097 18.7498 5.15901 18.3044C4.73705 17.859 4.5 17.2549 4.5 16.625V15.8333H2.25C1.65326 15.8333 1.08097 15.5831 0.65901 15.1377C0.237053 14.6923 0 14.0882 0 13.4583V6.33333C0 5.49348 0.316071 4.68803 0.87868 4.09416C1.44129 3.5003 2.20435 3.16667 3 3.16667H4.5V2.375ZM15 3.16667V2.375C15 2.16504 14.921 1.96367 14.7803 1.81521C14.6397 1.66674 14.4489 1.58333 14.25 1.58333H6.75C6.55109 1.58333 6.36032 1.66674 6.21967 1.81521C6.07902 1.96367 6 2.16504 6 2.375V3.16667H15ZM4.5 4.75H3C2.60218 4.75 2.22064 4.91682 1.93934 5.21375C1.65804 5.51068 1.5 5.91341 1.5 6.33333V13.4583C1.5 13.6683 1.57902 13.8697 1.71967 14.0181C1.86032 14.1666 2.05109 14.25 2.25 14.25H4.5V13.4583C4.5 12.8284 4.73705 12.2244 5.15901 11.779C5.58097 11.3336 6.15326 11.0833 6.75 11.0833H14.4C14.9967 11.0833 15.569 11.3336 15.991 11.779C16.4129 12.2244 16.65 12.8284 16.65 13.4583V14.25H18.75C18.9489 14.25 19.1397 14.1666 19.2803 14.0181C19.421 13.8697 19.5 13.6683 19.5 13.4583V6.33333C19.5 5.91341 19.342 5.51068 19.0607 5.21375C18.7794 4.91682 18.3978 4.75 18 4.75H4.5ZM6.75 12.6667C6.55109 12.6667 6.36032 12.7501 6.21967 12.8985C6.07902 13.047 6 13.2484 6 13.4583V16.625C6 16.835 6.07902 17.0363 6.21967 17.1848C6.36032 17.3333 6.55109 17.4167 6.75 17.4167H14.4C14.5989 17.4167 14.7897 17.3333 14.9303 17.1848C15.071 17.0363 15.15 16.835 15.15 16.625V13.4583C15.15 13.2484 15.071 13.047 14.9303 12.8985C14.7897 12.7501 14.5989 12.6667 14.4 12.6667H6.75Z" fill="white"/>
</svg>
