<svg width="35" height="35" viewBox="0 0 35 35" fill="none" xmlns="http://www.w3.org/2000/svg">
<path d="M1.16697 13.5169C1.38354 13.5169 1.59107 13.4307 1.74447 13.2776C1.8976 13.1245 1.98346 12.9167 1.98346 12.7001V4.53319C1.98346 3.88351 2.24159 3.26031 2.70124 2.80097C3.16062 2.34132 3.78379 2.08319 4.43346 2.08319H12.9896C13.4405 2.08319 13.806 1.7176 13.806 1.26671C13.806 0.81554 13.4405 0.449951 12.9896 0.449951H4.43346C3.35091 0.451318 2.31323 0.881984 1.54757 1.6473C0.78219 2.41296 0.35155 3.45064 0.35022 4.53319V12.7001C0.35022 12.9167 0.436355 13.1245 0.58948 13.2776C0.742605 13.4307 0.950414 13.5169 1.16698 13.5169H1.16697Z" fill="white"/>
<path d="M33.8331 21.6831C33.3823 21.6831 33.0167 22.049 33.0167 22.4999V30.6668C33.0167 31.3165 32.7585 31.9396 32.2989 32.399C31.8395 32.8586 31.2163 33.1168 30.5667 33.1168H22.3998C21.9489 33.1168 21.583 33.4824 21.583 33.9332C21.583 34.3844 21.9489 34.75 22.3998 34.75H30.5667C31.6492 34.7486 32.6869 34.318 33.4526 33.5527C34.2179 32.787 34.6486 31.7493 34.6499 30.6668V22.4999C34.6499 22.2833 34.5638 22.0755 34.4106 21.9224C34.2575 21.7692 34.0497 21.6831 33.8331 21.6831Z" fill="white"/>
<path d="M4.43309 34.75H12.9892C13.4401 34.75 13.8057 34.3844 13.8057 33.9332C13.8057 33.4823 13.4401 33.1168 12.9892 33.1168H4.43309C3.78341 33.1168 3.16021 32.8586 2.70087 32.399C2.24123 31.9396 1.98309 31.3164 1.98309 30.6668V22.4999C1.98309 22.049 1.6175 21.6831 1.16661 21.6831C0.715442 21.6831 0.349854 22.049 0.349854 22.4999V30.6668C0.351221 31.7493 0.781886 32.787 1.5472 33.5527C2.31286 34.318 3.35054 34.7487 4.43309 34.75Z" fill="white"/>
<path d="M30.5669 0.449951H22.4C21.9491 0.449951 21.5833 0.81554 21.5833 1.26671C21.5833 1.71761 21.9491 2.08319 22.4 2.08319H30.5669C31.2166 2.08319 31.8398 2.34132 32.2991 2.80097C32.7588 3.26035 33.0169 3.88352 33.0169 4.53319V12.7001C33.0169 13.151 33.3825 13.5169 33.8334 13.5169C34.2846 13.5169 34.6502 13.151 34.6502 12.7001V4.53319C34.6488 3.45064 34.2181 2.41296 33.4528 1.6473C32.6871 0.881921 31.6495 0.451281 30.5669 0.449951Z" fill="white"/>
<path d="M13.4169 6.16687H8.51689C7.86693 6.16687 7.24373 6.425 6.78439 6.88437C6.32505 7.34375 6.06689 7.96692 6.06689 8.61687V13.5169C6.06689 14.1666 6.32502 14.7898 6.78439 15.2491C7.24377 15.7087 7.86694 15.9669 8.51689 15.9669H13.4169C14.0666 15.9669 14.6898 15.7087 15.1491 15.2491C15.6088 14.7897 15.8669 14.1665 15.8669 13.5169V8.61687C15.8669 7.96691 15.6088 7.34371 15.1491 6.88437C14.6897 6.425 14.0666 6.16687 13.4169 6.16687ZM14.2337 13.5169H14.2334C14.2334 13.7334 14.1475 13.941 13.9944 14.0944C13.841 14.2475 13.6335 14.3334 13.4169 14.3334H8.51689C8.06572 14.3334 7.70013 13.9678 7.70013 13.5169V8.61688C7.70013 8.16571 8.06572 7.80012 8.51689 7.80012H13.4169C13.6335 7.80012 13.841 7.88625 13.9944 8.03938C14.1475 8.1925 14.2334 8.40031 14.2334 8.61688L14.2337 13.5169Z" fill="white"/>
<path d="M26.4831 15.9669C27.133 15.9669 27.7562 15.7087 28.2156 15.2491C28.6749 14.7897 28.9331 14.1665 28.9331 13.5169V8.61687C28.9331 7.96691 28.6749 7.34371 28.2156 6.88437C27.7562 6.42503 27.133 6.16687 26.4831 6.16687H21.5831C20.9334 6.16687 20.3102 6.425 19.8508 6.88437C19.3912 7.34375 19.1331 7.96692 19.1331 8.61687V13.5169C19.1331 14.1666 19.3912 14.7898 19.8508 15.2491C20.3102 15.7087 20.9334 15.9669 21.5831 15.9669H26.4831ZM20.7663 13.5169L20.7666 8.61687C20.7666 8.1657 21.1322 7.80011 21.5831 7.80011H26.4831C26.6996 7.80011 26.9074 7.88625 27.0606 8.03937C27.2137 8.1925 27.2998 8.4003 27.2998 8.61687V13.5169C27.2998 13.7334 27.2137 13.941 27.0606 14.0944C26.9074 14.2475 26.6996 14.3334 26.4831 14.3334H21.5831C21.1322 14.3334 20.7666 13.9678 20.7666 13.5169L20.7663 13.5169Z" fill="white"/>
<path d="M13.4169 19.233H8.51689C7.86693 19.233 7.24373 19.4912 6.78439 19.9508C6.32502 20.4102 6.06689 21.0334 6.06689 21.683V26.583C6.06689 27.233 6.32502 27.8562 6.78439 28.3155C7.24377 28.7749 7.86694 29.033 8.51689 29.033H13.4169C14.0666 29.033 14.6898 28.7749 15.1491 28.3155C15.6088 27.8562 15.8669 27.233 15.8669 26.583V21.683C15.8669 21.0333 15.6088 20.4102 15.1491 19.9508C14.6897 19.4912 14.0666 19.233 13.4169 19.233ZM14.2337 26.583H14.2334C14.2334 26.7996 14.1475 27.0074 13.9944 27.1605C13.841 27.3137 13.6335 27.3998 13.4169 27.3998H8.51689C8.06572 27.3998 7.70013 27.0342 7.70013 26.583V21.683C7.70013 21.2321 8.06572 20.8666 8.51689 20.8666H13.4169C13.6335 20.8666 13.841 20.9524 13.9944 21.1055C14.1475 21.2589 14.2334 21.4665 14.2334 21.683L14.2337 26.583Z" fill="white"/>
<path d="M24.0331 29.033C24.4843 29.033 24.8499 28.6675 24.8499 28.2166C24.8499 27.7654 24.4843 27.3998 24.0331 27.3998C23.1669 27.3998 22.3359 27.0555 21.7234 26.443C21.1106 25.8303 20.7666 24.9996 20.7666 24.133C20.7666 23.2668 21.1106 22.4358 21.7234 21.8233C22.3359 21.2106 23.1669 20.8666 24.0331 20.8666C24.8997 20.8666 25.7304 21.2106 26.3431 21.8233C26.9556 22.4358 27.2999 23.2668 27.2999 24.133C27.3026 24.8404 27.0732 25.5289 26.6467 26.093C26.3759 26.454 26.449 26.9659 26.8099 27.2366C27.1708 27.507 27.6827 27.434 27.9531 27.0731C28.8429 25.8869 29.1475 24.362 28.7819 22.925C28.4163 21.4881 27.4197 20.294 26.0713 19.6771C24.723 19.0605 23.1679 19.0873 21.8418 19.7504C20.5156 20.4135 19.561 21.6415 19.2455 23.0902C18.9299 24.5388 19.2873 26.0526 20.2173 27.207C21.1475 28.3617 22.5505 29.033 24.0331 29.033Z" fill="white"/>
</svg>
