<svg xmlns="http://www.w3.org/2000/svg" xmlns:xlink="http://www.w3.org/1999/xlink" preserveAspectRatio="xMidYMid" width="17" height="17" viewBox="0 0 510 510">
  <defs>
    <style>
      .cls-1 {
        fill: #000;
        fill-rule: evenodd;
      }
    </style>
  </defs>
  <path d="M255.000,-0.000 C114.750,-0.000 -0.000,114.750 -0.000,255.000 C-0.000,395.250 114.750,510.000 255.000,510.000 C395.250,510.000 510.000,395.250 510.000,255.000 C510.000,114.750 395.250,-0.000 255.000,-0.000 ZM280.500,433.500 L229.500,433.500 L229.500,382.500 L280.500,382.500 L280.500,433.500 ZM334.050,237.150 L311.100,260.100 C290.700,277.950 280.500,293.250 280.500,331.500 L229.500,331.500 L229.500,318.750 C229.500,290.700 239.700,265.200 260.100,247.350 L290.700,214.200 C300.900,206.550 306.000,193.800 306.000,178.500 C306.000,150.450 283.050,127.500 255.000,127.500 C226.950,127.500 204.000,150.450 204.000,178.500 L153.000,178.500 C153.000,122.400 198.900,76.500 255.000,76.500 C311.100,76.500 357.000,122.400 357.000,178.500 C357.000,201.450 346.800,221.850 334.050,237.150 Z" class="cls-1"/>
</svg>
