<svg width="109" height="148" viewBox="0 0 109 148" fill="none" xmlns="http://www.w3.org/2000/svg">
<path d="M87.2264 15.204H22.1661V23.1494H87.2264V15.204Z" fill="white"/>
<path d="M104.207 75.5566C101.251 71.8433 96.8964 69.1184 91.1995 67.4038V11.9181C91.1995 5.34647 85.8531 0 79.2814 0H30.1116C23.5399 0 18.1934 5.34647 18.1934 11.9181V59.6475H14.8977C8.32601 59.6475 2.97953 64.9939 2.97953 71.5656V72.0952C2.97953 74.4208 3.65132 76.5911 4.80817 78.4273C1.8922 80.6019 0 84.0769 0 87.986V88.5156C0 92.4247 1.8922 95.8996 4.80817 98.0747C3.65172 99.9105 2.97953 102.081 2.97953 104.406V104.936C2.97953 111.508 8.32601 116.854 14.8977 116.854H18.2045C18.3742 121.475 21.1853 125.43 25.1703 127.253C25.5402 131.426 26.7928 139.246 31.0372 145.344C31.8091 146.453 33.045 147.048 34.3012 147.048C35.0846 147.048 35.8756 146.816 36.5672 146.335C38.368 145.082 38.8118 142.606 37.5584 140.805C34.8578 136.925 33.7438 131.823 33.2838 128.33H66.1321C66.2402 128.495 66.3486 128.655 66.4559 128.811C67.7041 130.615 70.1791 131.067 71.9831 129.818C73.7875 128.57 74.2384 126.095 72.9902 124.291C68.2551 117.446 69.4994 110.035 76.7965 101.641C78.0149 100.588 81.6857 96.9806 81.2527 92.0938C80.9237 88.3821 78.4285 85.2631 73.836 82.8227C73.6993 82.75 73.5587 82.6856 73.4145 82.6296C73.2294 82.5573 68.8844 80.8105 69.5447 76.3901C69.9447 73.7136 75.4116 73.1034 78.9862 73.3446C88.1854 73.9679 94.7571 76.4445 97.9901 80.5058C100.275 83.3761 101.012 87.1096 100.244 91.9206C100.08 92.9475 99.9164 94.0027 99.7492 95.0825C97.4625 109.859 94.6169 128.248 79.9373 140.634C78.2604 142.049 78.0479 144.555 79.463 146.232C80.2491 147.163 81.371 147.643 82.5013 147.643C83.4059 147.643 84.3156 147.336 85.0613 146.706C102.014 132.402 105.243 111.535 107.601 96.2973C107.766 95.231 107.927 94.1882 108.09 93.1736C109.215 86.1335 107.909 80.2062 104.207 75.5566ZM11.9181 92.4883C9.72758 92.4883 7.94542 90.7061 7.94542 88.5156V87.986C7.94542 85.7954 9.72758 84.0133 11.9181 84.0133H14.8977H17.8772V92.4883H14.8977H11.9181ZM10.925 71.5656C10.925 69.375 12.7071 67.5929 14.8977 67.5929H17.8772V76.0679H14.8977C12.7071 76.0679 10.925 74.2857 10.925 72.0952V71.5656ZM17.8772 108.909H14.8977C12.7071 108.909 10.925 107.127 10.925 104.936V104.406C10.925 102.216 12.7071 100.434 14.8977 100.434H17.8772V108.909ZM30.1116 120.385C27.921 120.385 26.1388 118.602 26.1388 116.412V113.126H62.4721C62.134 115.775 62.2985 118.206 62.7625 120.385H30.1116ZM61.6875 75.2157C60.4464 83.5211 66.6243 88.3988 70.2784 89.9306C72.44 91.1097 73.2782 92.174 73.3378 92.7862C73.4212 93.6404 72.3236 95.0443 71.5592 95.6668C71.3678 95.817 71.1902 95.9847 71.0289 96.1678C68.2532 99.3205 66.2688 102.333 64.8982 105.181H26.1388V11.9181C26.1388 9.72758 27.921 7.94542 30.1116 7.94542H79.2814C81.4719 7.94542 83.2541 9.72758 83.2541 11.9181V65.7797C82.0496 65.6284 80.8109 65.504 79.5241 65.4166C69.5292 64.7437 62.6918 68.4947 61.6875 75.2157Z" fill="white"/>
<path d="M51.5822 33.0399H42.0238C40.927 33.0399 40.0375 33.9289 40.0375 35.0262V44.5849C40.0375 45.6822 40.927 46.5713 42.0238 46.5713H51.5822C52.679 46.5713 53.5685 45.6822 53.5685 44.5849V35.0262C53.5685 33.9289 52.679 33.0399 51.5822 33.0399Z" fill="white"/>
<path d="M48.9999 56.7541H44.0102V51.963C44.0102 50.8658 43.1207 49.9767 42.0238 49.9767C40.927 49.9767 40.0375 50.8658 40.0375 51.963V58.7409C40.0375 59.8381 40.927 60.7272 42.0238 60.7272H48.9999C50.0968 60.7272 50.9863 59.8381 50.9863 58.7409C50.9863 57.6436 50.0968 56.7541 48.9999 56.7541Z" fill="white"/>
<path d="M66.4556 33.0399H56.8972C55.8004 33.0399 54.9109 33.9289 54.9109 35.0262V44.5849C54.9109 45.6822 55.8004 46.5713 56.8972 46.5713H66.4556C67.5524 46.5713 68.4419 45.6822 68.4419 44.5849V35.0262C68.4419 33.9289 67.5528 33.0399 66.4556 33.0399ZM64.4692 42.5986H58.8836V37.0126H64.4692V42.5986Z" fill="white"/>
<path d="M64.5093 50.0307H58.8446C57.7478 50.0307 56.8583 50.9198 56.8583 52.0171V57.6809C56.8583 58.7782 57.7478 59.6673 58.8446 59.6673H64.5093C65.6062 59.6673 66.4957 58.7782 66.4957 57.6809V52.0171C66.4957 50.9198 65.6062 50.0307 64.5093 50.0307Z" fill="white"/>
</svg>
