<svg width="25" height="23" viewBox="0 0 25 23" fill="none" xmlns="http://www.w3.org/2000/svg">
<path d="M5.07812 8.68517L4.5625 8.09767L12.6375 1.01642L20.4313 8.10236L19.9062 8.68126L12.6281 2.06329L5.07812 8.68517Z" fill="#2C3E50"/>
<path d="M12.6328 3.97737C13.6433 3.97737 14.4625 3.15819 14.4625 2.14768C14.4625 1.13717 13.6433 0.317993 12.6328 0.317993C11.6223 0.317993 10.8031 1.13717 10.8031 2.14768C10.8031 3.15819 11.6223 3.97737 12.6328 3.97737Z" fill="#2C3E50"/>
<path d="M25 7.65546H0V22.682H25V7.65546Z" fill="#E04F5F"/>
<path d="M3.38833 16.5281C3.70552 16.6914 4.1938 16.8539 4.69771 16.8539C5.23989 16.8539 5.52739 16.6289 5.52739 16.2883C5.52739 15.9625 5.27974 15.7766 4.65161 15.5523C3.78442 15.25 3.21802 14.7695 3.21802 14.0101C3.21802 13.1187 3.96177 12.4367 5.1938 12.4367C5.78286 12.4367 6.21724 12.5601 6.52661 12.7L6.26333 13.6531C6.05396 13.5523 5.68208 13.4062 5.17114 13.4062C4.65942 13.4062 4.41099 13.6383 4.41099 13.9101C4.41099 14.243 4.70552 14.3898 5.37974 14.6453C6.30239 14.9867 6.73521 15.4672 6.73521 16.2031C6.73521 17.0789 6.06177 17.8226 4.62817 17.8226C4.0313 17.8226 3.44224 17.6672 3.14771 17.5047L3.38833 16.5281Z" fill="white"/>
<path d="M12.3156 15.0789C12.3156 16.7914 11.2781 17.8297 9.75159 17.8297C8.20159 17.8297 7.29456 16.6594 7.29456 15.1719C7.29456 13.607 8.29377 12.4367 9.83596 12.4367C11.4406 12.4367 12.3156 13.6375 12.3156 15.0789ZM8.54221 15.1492C8.54221 16.1719 9.02268 16.8922 9.81331 16.8922C10.611 16.8922 11.068 16.132 11.068 15.118C11.068 14.1805 10.6188 13.375 9.80549 13.375C9.00784 13.3742 8.54221 14.1336 8.54221 15.1492Z" fill="white"/>
<path d="M13.093 12.5226H14.2782V16.7531H16.3547V17.7453H13.093V12.5226Z" fill="white"/>
<path d="M17.0524 12.5914C17.4867 12.5219 18.0516 12.4828 18.6492 12.4828C19.6414 12.4828 20.2836 12.6609 20.7875 13.0406C21.3297 13.4437 21.6703 14.0867 21.6703 15.0094C21.6703 16.0086 21.3063 16.6984 20.8031 17.1242C20.2531 17.582 19.4164 17.7984 18.393 17.7984C17.7813 17.7984 17.3469 17.7594 17.0524 17.7211V12.5914ZM18.2383 16.8539C18.3391 16.8773 18.5024 16.8773 18.6492 16.8773C19.718 16.8851 20.4156 16.2961 20.4156 15.0484C20.4235 13.9633 19.7875 13.3898 18.7727 13.3898C18.5094 13.3898 18.3383 13.4133 18.2375 13.4367V16.8539H18.2383Z" fill="white"/>
</svg>
