<svg width="38" height="58" viewBox="0 0 38 58" fill="none" xmlns="http://www.w3.org/2000/svg">
<path d="M4.5 2.1875C4.5 1.64049 4.2827 1.11589 3.89591 0.729092C3.50911 0.342298 2.98451 0.125 2.4375 0.125C1.89049 0.125 1.36589 0.342298 0.979093 0.729092C0.592299 1.11589 0.375 1.64049 0.375 2.1875V14.5625C0.374515 16.9398 1.19543 19.2443 2.69881 21.086C4.20218 22.9276 6.29569 24.1933 8.625 24.6687V55.8125C8.625 56.3595 8.8423 56.8841 9.22909 57.2709C9.61589 57.6577 10.1405 57.875 10.6875 57.875C11.2345 57.875 11.7591 57.6577 12.1459 57.2709C12.5327 56.8841 12.75 56.3595 12.75 55.8125V24.6687C15.0793 24.1933 17.1728 22.9276 18.6762 21.086C20.1796 19.2443 21.0005 16.9398 21 14.5625V2.1875C21 1.64049 20.7827 1.11589 20.3959 0.729092C20.0091 0.342298 19.4845 0.125 18.9375 0.125C18.3905 0.125 17.8659 0.342298 17.4791 0.729092C17.0923 1.11589 16.875 1.64049 16.875 2.1875V14.5625C16.8757 15.8426 16.4793 17.0914 15.7405 18.1368C15.0017 19.1822 13.9569 19.9727 12.75 20.3994V2.1875C12.75 1.64049 12.5327 1.11589 12.1459 0.729092C11.7591 0.342298 11.2345 0.125 10.6875 0.125C10.1405 0.125 9.61589 0.342298 9.22909 0.729092C8.8423 1.11589 8.625 1.64049 8.625 2.1875V20.3994C7.41812 19.9727 6.37328 19.1822 5.63449 18.1368C4.8957 17.0914 4.49933 15.8426 4.5 14.5625V2.1875ZM33.375 55.8125V29H27.1875C26.6405 29 26.1159 28.7827 25.7291 28.3959C25.3423 28.0091 25.125 27.4845 25.125 26.9375V10.4375C25.125 7.70263 26.4697 5.14513 28.3054 3.30538C30.1451 1.46975 32.7026 0.125 35.4375 0.125C35.9845 0.125 36.5091 0.342298 36.8959 0.729092C37.2827 1.11589 37.5 1.64049 37.5 2.1875V55.8125C37.5 56.3595 37.2827 56.8841 36.8959 57.2709C36.5091 57.6577 35.9845 57.875 35.4375 57.875C34.8905 57.875 34.3659 57.6577 33.9791 57.2709C33.5923 56.8841 33.375 56.3595 33.375 55.8125Z" fill="#130F26"/>
</svg>
