<svg width="16" height="16" viewBox="0 0 16 16" fill="none" xmlns="http://www.w3.org/2000/svg">
<g clip-path="url(#clip0_234_550)">
<path d="M7.54077 1.06637C7.71432 0.663389 8.28569 0.66339 8.45923 1.06637L10.316 5.37799C10.3884 5.54608 10.5468 5.66119 10.7291 5.67809L15.4034 6.11162C15.8403 6.15214 16.0169 6.69555 15.6872 6.98513L12.1604 10.0834C12.0229 10.2042 11.9624 10.3904 12.0027 10.569L13.0348 15.1485C13.1313 15.5765 12.669 15.9124 12.2917 15.6884L8.25528 13.2916C8.09792 13.1981 7.90208 13.1981 7.74472 13.2916L3.70825 15.6884C3.33099 15.9124 2.86874 15.5765 2.96521 15.1485L3.99735 10.569C4.03759 10.3904 3.97707 10.2042 3.83958 10.0834L0.312761 6.98512C-0.0168698 6.69555 0.159694 6.15214 0.59658 6.11162L5.27095 5.67809C5.45318 5.66119 5.61161 5.54608 5.684 5.37799L7.54077 1.06637Z" fill="#F1A400"/>
</g>
<defs>
<clipPath id="clip0_234_550">
<rect width="16" height="16" fill="white"/>
</clipPath>
</defs>
</svg>
