<svg width="18" height="14" viewBox="0 0 18 14" fill="none" xmlns="http://www.w3.org/2000/svg">
<path d="M3.6 14L5.4 9.625H8.1V6.10313C5.805 6.03021 3.8814 5.70208 2.3292 5.11875C0.7764 4.53542 0 3.85 0 3.0625C0 2.21667 0.8775 1.49479 2.6325 0.896875C4.3875 0.298958 6.51 0 9 0C11.505 0 13.6311 0.298958 15.3783 0.896875C17.1261 1.49479 18 2.21667 18 3.0625C18 3.85 17.2239 4.53542 15.6717 5.11875C14.1189 5.70208 12.195 6.03021 9.9 6.10313V9.625H12.6L14.4 14H12.6L11.52 11.375H6.48L5.4 14H3.6Z" fill="#130F26"/>
</svg>
