<svg width="26" height="37" viewBox="0 0 26 37" fill="none" xmlns="http://www.w3.org/2000/svg">
<path d="M8.64118 9.78958L11.9294 6.55208C13.4333 8.06805 14.6247 9.84765 15.5036 11.8909C16.3836 13.9331 16.8235 16.1361 16.8235 18.5C16.8235 20.8639 16.3775 23.0674 15.4853 25.1107C14.5931 27.1529 13.3824 28.9319 11.8529 30.4479L8.64118 27.2104C9.76274 26.0799 10.6422 24.7694 11.2794 23.2792C11.9167 21.7889 12.2353 20.1958 12.2353 18.5C12.2353 16.8042 11.9167 15.2111 11.2794 13.7208C10.6422 12.2306 9.76274 10.9201 8.64118 9.78958ZM15.1412 3.2375L18.3529 -3.34264e-07C20.749 2.36389 22.6225 5.12604 23.9735 8.28646C25.3245 11.4469 26 14.8514 26 18.5C26 22.1486 25.3245 25.5531 23.9735 28.7135C22.6225 31.874 20.749 34.6361 18.3529 37L15.1412 33.7625C17.1039 31.784 18.64 29.4911 19.7493 26.8836C20.8576 24.2751 21.4118 21.4806 21.4118 18.5C21.4118 15.5194 20.8576 12.7249 19.7493 10.1164C18.64 7.50894 17.1039 5.21597 15.1412 3.2375ZM1.09869e-06 18.5L5.42941 23.9344C6.11765 23.2406 6.65957 22.4312 7.05518 21.5062C7.44977 20.5812 7.64706 19.5792 7.64706 18.5C7.64706 17.4208 7.44977 16.4187 7.05518 15.4937C6.65957 14.5687 6.11765 13.7594 5.42941 13.0656L1.09869e-06 18.5Z" fill="white"/>
</svg>
